<?xml version="1.0" encoding="UTF-8"?>
<svg version="1.1" xmlns="http://www.w3.org/2000/svg" width="1080" height="1080">
<path d="M0 0 C356.4 0 712.8 0 1080 0 C1080 356.4 1080 712.8 1080 1080 C723.6 1080 367.2 1080 0 1080 C0 723.6 0 367.2 0 0 Z " fill="#FEFEFE" transform="translate(0,0)"/>
<path d="M0 0 C0 33.66 0 67.32 0 102 C2.97 102 5.94 102 9 102 C8.46137794 107.92484261 7.29622483 117.70377517 3 122 C-2.47000413 121.95948145 -7.72574582 121.66364644 -12 118 C-17 112.01388889 -17 112.01388889 -17 109 C-17.99 109 -18.98 109 -20 109 C-20.2475 109.598125 -20.495 110.19625 -20.75 110.8125 C-22.65937602 114.15390804 -24.92797364 115.59799012 -28.5 116.9375 C-31.13515495 117.84526687 -31.13515495 117.84526687 -32.875 120.125 C-35 122 -35 122 -38.3125 122.4375 C-42.49156029 121.94167929 -45.24370816 120.83981641 -49 119 C-49 118.34 -49 117.68 -49 117 C-49.8353125 116.62875 -49.8353125 116.62875 -50.6875 116.25 C-53.50221471 114.72853259 -55.69885715 113.2389498 -58 111 C-58.8125 107.75 -58.8125 107.75 -59 105 C-59.66 105 -60.32 105 -61 105 C-61.77712697 102.23873912 -62.12955551 99.774663 -62.14526367 96.90917969 C-62.15164352 96.11445251 -62.15802338 95.31972534 -62.16459656 94.50091553 C-62.16570938 93.64983215 -62.1668222 92.79874878 -62.16796875 91.921875 C-62.17129715 91.03647034 -62.17462555 90.15106567 -62.17805481 89.23883057 C-62.18311275 87.36609414 -62.18546348 85.49334872 -62.18530273 83.62060547 C-62.18748143 80.77426021 -62.20562763 77.92830759 -62.22460938 75.08203125 C-62.2275452 73.25781382 -62.22952873 71.43359455 -62.23046875 69.609375 C-62.23765427 68.76638855 -62.24483978 67.9234021 -62.25224304 67.05487061 C-62.21551136 57.41614159 -60.2782878 51.38263629 -53.4375 44.375 C-52.633125 43.59125 -51.82875 42.8075 -51 42 C-50.525625 41.49984375 -50.05125 40.9996875 -49.5625 40.484375 C-44.28917343 35.47471476 -37.79527126 34.22657991 -30.72265625 33.82421875 C-28 34 -28 34 -24.75 35.8125 C-23 38 -23 38 -23 40 C-21.68 40.33 -20.36 40.66 -19 41 C-19.00523682 39.854104 -19.01047363 38.70820801 -19.01586914 37.52758789 C-19.03391717 33.29159318 -19.04543128 29.05560188 -19.05493164 24.81958008 C-19.05997231 22.98331125 -19.06680477 21.14704646 -19.07543945 19.31079102 C-19.08751672 16.67723599 -19.09323081 14.04373384 -19.09765625 11.41015625 C-19.10281754 10.58411392 -19.10797882 9.75807159 -19.11329651 8.90699768 C-19.11349205 6.93763632 -19.06204152 4.96838386 -19 3 C-17.07945451 1.07945451 -13.76217237 1.29546166 -11.1875 0.9375 C-9.32158203 0.67259766 -9.32158203 0.67259766 -7.41796875 0.40234375 C-4 0 -4 0 0 0 Z " fill="#0A0A0A" transform="translate(624,495)"/>
<path d="M0 0 C0 16.83 0 33.66 0 51 C3.96762657 49.4387019 3.96762657 49.4387019 5.36254883 46.89941406 C7 45 7 45 9.8190918 44.54589844 C11.49225464 44.57731934 11.49225464 44.57731934 13.19921875 44.609375 C14.40771484 44.62226562 15.61621094 44.63515625 16.86132812 44.6484375 C18.12396484 44.68195312 19.38660156 44.71546875 20.6875 44.75 C21.96173828 44.76804687 23.23597656 44.78609375 24.54882812 44.8046875 C27.69996841 44.85189559 30.8496114 44.91773616 34 45 C33.97381592 44.13310547 33.94763184 43.26621094 33.9206543 42.37304688 C33.83488109 39.12278504 33.77248556 35.87310445 33.7253418 32.62207031 C33.70036588 31.22148531 33.66637183 29.82102839 33.62280273 28.42089844 C33.16450725 13.30253928 33.16450725 13.30253928 39 7 C43.19687207 2.72901252 47.27692752 0.15961738 53.33203125 -0.1953125 C54.48058594 -0.17210937 55.62914062 -0.14890625 56.8125 -0.125 C57.97394531 -0.10695313 59.13539063 -0.08890625 60.33203125 -0.0703125 C61.65267578 -0.03550781 61.65267578 -0.03550781 63 0 C62.44854729 5.23880078 61.57077907 9.97350697 60 15 C59.34 15 58.68 15 58 15 C57.67 16.32 57.34 17.64 57 19 C56.01 19 55.02 19 54 19 C54 48.7 54 78.4 54 109 C42 114 42 114 34 115 C33.67 97.18 33.34 79.36 33 61 C31.35 62.32 29.7 63.64 28 65 C24.77026367 65.45410156 24.77026367 65.45410156 21.16796875 65.390625 C19.22954102 65.37128906 19.22954102 65.37128906 17.25195312 65.3515625 C15.89712454 65.31814634 14.54230683 65.28428662 13.1875 65.25 C11.81317683 65.22992034 10.43882561 65.21167213 9.06445312 65.1953125 C5.70892144 65.14821732 2.35481873 65.08245135 -1 65 C-0.96072388 66.57297852 -0.96072388 66.57297852 -0.9206543 68.17773438 C-0.82959569 72.09873805 -0.77255092 76.01964987 -0.7253418 79.94140625 C-0.7003234 81.63297281 -0.6662971 83.32443264 -0.62280273 85.015625 C-0.17708903 102.80222352 -0.17708903 102.80222352 -6 109 C-8.1706543 109.68164062 -8.1706543 109.68164062 -10 110 C-10 110.66 -10 111.32 -10 112 C-15.87883349 114.61281488 -21.70731728 114.18328202 -28 114 C-28.60274091 107.36984999 -27.02993973 100.92895613 -24 95 C-22.02 94.505 -22.02 94.505 -20 94 C-20 84.76 -20 75.52 -20 66 C-22.97 66 -25.94 66 -29 66 C-28.45144652 61.428721 -27.58255197 57.32564205 -26 53 C-25.34 53 -24.68 53 -24 53 C-24 50.69 -24 48.38 -24 46 C-22.02 45.505 -22.02 45.505 -20 45 C-20 31.8 -20 18.6 -20 5 C-16.04 3.68 -12.08 2.36 -8 1 C-6 0 -6 0 0 0 Z " fill="#060606" transform="translate(334,503)"/>
<path d="M0 0 C6.37015851 2.79845114 12.14662706 7.83639898 14.83984375 14.328125 C15.08035278 16.85919189 15.08035278 16.85919189 15.06689453 19.73925781 C15.06674347 20.82007629 15.06659241 21.90089478 15.06643677 23.01446533 C15.0561142 24.17500427 15.04579163 25.33554321 15.03515625 26.53125 C15.03232635 27.72417664 15.02949646 28.91710327 15.02658081 30.1461792 C15.01538428 33.95692976 14.99028028 37.76744545 14.96484375 41.578125 C14.95481329 44.16145494 14.94568755 46.74478856 14.9375 49.328125 C14.91544664 55.66153849 14.8819741 61.99481497 14.83984375 68.328125 C17.47984375 68.328125 20.11984375 68.328125 22.83984375 68.328125 C22.32898563 74.76493728 21.11041478 80.28754924 18.83984375 86.328125 C6.86309956 86.74672965 6.86309956 86.74672965 1.65234375 82.578125 C-0.4629552 79.95223665 -1.27846834 77.56098067 -2.16015625 74.328125 C-3.10890625 74.823125 -4.05765625 75.318125 -5.03515625 75.828125 C-8.16015625 77.328125 -8.16015625 77.328125 -10.16015625 77.328125 C-10.16015625 77.988125 -10.16015625 78.648125 -10.16015625 79.328125 C-11.875 80.80078125 -11.875 80.80078125 -14.09765625 82.390625 C-16.74029663 84.22718031 -16.74029663 84.22718031 -19.16015625 86.328125 C-25.09825027 86.90963327 -30.17028963 86.87647459 -35.16015625 83.328125 C-41.62748315 77.15081276 -47.13450926 69.90023424 -48.22265625 60.828125 C-48.02785306 57.13711724 -47.54267085 55.73687706 -44.99609375 53.015625 C-42.41041086 51.06416622 -39.77604244 49.27585655 -37.03515625 47.55078125 C-33.60182585 45.31196372 -30.37087657 42.79232894 -27.09765625 40.328125 C-20.63453068 35.48624981 -20.63453068 35.48624981 -17.16015625 34.328125 C-16.50015625 33.338125 -15.84015625 32.348125 -15.16015625 31.328125 C-12.77734375 31.03515625 -12.77734375 31.03515625 -10.03515625 31.140625 C-8.42640625 31.2025 -6.81765625 31.264375 -5.16015625 31.328125 C-5.65515625 25.883125 -5.65515625 25.883125 -6.16015625 20.328125 C-12.10015625 19.998125 -18.04015625 19.668125 -24.16015625 19.328125 C-24.16015625 23.618125 -24.16015625 27.908125 -24.16015625 32.328125 C-36.87444196 36.75669643 -36.87444196 36.75669643 -43.16015625 37.328125 C-44.02083043 24.43713837 -44.02083043 24.43713837 -40.97265625 20.703125 C-38.16015625 18.328125 -38.16015625 18.328125 -35.80859375 16.9453125 C-32.95559401 15.20321531 -30.52520597 13.23478444 -27.97265625 11.078125 C-26.03689367 9.49266798 -24.09940383 7.90931743 -22.16015625 6.328125 C-21.30679688 5.62042969 -20.4534375 4.91273438 -19.57421875 4.18359375 C-13.11265855 -0.82054829 -7.96124972 -2.4761934 0 0 Z " fill="#090909" transform="translate(752.16015625,529.671875)"/>
<path d="M0 0 C6.97199006 -0.42685653 11.95606759 1.19114164 17.375 5.5625 C20 8 20 8 21 10 C24.56990169 9.68500867 26.54079548 8.73954766 29.1875 6.4375 C32 4 32 4 34 4 C34 3.34 34 2.68 34 2 C37.74774849 -0.49849899 41.65708735 -0.52283609 46 0 C51.41005605 1.87695822 55.41800592 5.60198952 59 10 C59 10.66 59 11.32 59 12 C59.66 12 60.32 12 61 12 C62.12659519 15.37978558 62.12020983 17.92816136 62.11352539 21.4909668 C62.11367142 22.1448941 62.11381744 22.79882141 62.1139679 23.4725647 C62.11327188 25.63148326 62.10549408 27.79031528 62.09765625 29.94921875 C62.09579096 31.44708713 62.09436758 32.94495611 62.09336853 34.44282532 C62.08955207 38.38345019 62.0797292 42.32403814 62.06866455 46.26464844 C62.05843172 50.28645325 62.0538669 54.30826404 62.04882812 58.33007812 C62.03810616 66.22006901 62.02104017 74.11002991 62 82 C60.89591797 82.39832031 60.89591797 82.39832031 59.76953125 82.8046875 C58.79371094 83.15789062 57.81789063 83.51109375 56.8125 83.875 C55.84957031 84.22304688 54.88664063 84.57109375 53.89453125 84.9296875 C52.03989744 85.61547652 50.20096236 86.34636908 48.38671875 87.1328125 C46 88 46 88 42 88 C41.67 65.89 41.34 43.78 41 21 C35.39 20.67 29.78 20.34 24 20 C24.00785522 22.94570923 24.00785522 22.94570923 24.01586914 25.95092773 C24.03196639 32.42495879 24.0434721 38.89898513 24.05181217 45.37303066 C24.05704031 49.29988658 24.06413669 53.22672094 24.07543945 57.15356445 C24.0862708 60.94014257 24.09227736 64.7266999 24.09487724 68.51329231 C24.09673105 69.96104319 24.10035081 71.40879288 24.10573006 72.85653496 C24.11294367 74.87757135 24.11340808 76.89862848 24.11352539 78.91967773 C24.115746 80.07217514 24.11796661 81.22467255 24.12025452 82.41209412 C24 85 24 85 23 86 C16.4 86 9.8 86 3 86 C3 64.22 3 42.44 3 20 C0.03 20 -2.94 20 -6 20 C-5.43517745 14.57770351 -4.06328938 10.0318996 -2 5 C-1.608125 4.01 -1.21625 3.02 -0.8125 2 C-0.544375 1.34 -0.27625 0.68 0 0 Z " fill="#050505" transform="translate(484,529)"/>
<path d="M0 0 C7.48710201 2.80931969 16.30753203 8.87941545 20.07421875 16.04296875 C20.64359287 18.06606403 20.85476387 19.90617912 21 22 C21.17015625 22.72058594 21.3403125 23.44117188 21.515625 24.18359375 C21.94975341 26.90633391 21.96226453 28.3957061 21 31 C18.18809941 33.69077256 15.2574065 35.80758917 12.015625 37.95703125 C9.31181786 39.78875551 7.24808709 41.65656993 5 44 C3.34151823 45.01351664 1.67334039 46.01120795 0 47 C-2.09773013 48.57228713 -4.16924321 50.17315288 -6.23046875 51.79296875 C-8 53 -8 53 -10 53 C-10 53.66 -10 54.32 -10 55 C-13.63 55 -17.26 55 -21 55 C-20.15396779 58.999425 -19.55257896 61.44742104 -16.625 64.375 C-12.36821049 67.01015541 -8.66529434 67.15256104 -3.703125 67.31640625 C-2.49785156 67.35830078 -1.29257812 67.40019531 -0.05078125 67.44335938 C1.20347656 67.48267578 2.45773437 67.52199219 3.75 67.5625 C5.01972656 67.60568359 6.28945313 67.64886719 7.59765625 67.69335938 C10.73166365 67.79939722 13.86574933 67.90146058 17 68 C17.23400567 72.84956582 16.15165969 74.30805579 13 78 C12.46375 79.0725 11.9275 80.145 11.375 81.25 C10 84 10 84 8 85 C7.505 86.485 7.505 86.485 7 88 C-8.46081029 88.76635943 -19.99121487 89.30960836 -32.125 78.625 C-35.41102078 75.05115258 -36.25146722 71.74070764 -37 67 C-37.66 67 -38.32 67 -39 67 C-41.06807325 60.79578025 -40.71344596 53.79237763 -40.89941406 47.28808594 C-40.96600082 45.44240436 -41.06132137 43.59751645 -41.18652344 41.75488281 C-42.17844327 26.84391495 -42.17844327 26.84391495 -38.55664062 22.11572266 C-35.0095625 18.79976549 -31.02664802 16.43588247 -26.79266357 14.1047821 C-24.12028739 12.45785101 -22.11885292 10.29399812 -20 8 C-8.25796887 -2.19421794 -8.25796887 -2.19421794 0 0 Z " fill="#090909" transform="translate(448,529)"/>
<path d="M0 0 C6.88540273 -0.6147681 10.56669302 0.78077267 16 5 C18.5 7.1875 18.5 7.1875 20 9 C20 9.66 20 10.32 20 11 C24.29488489 8.42306907 26.59096861 6.35919966 29 2 C33.06612167 -0.71074778 36.22925099 -0.62513263 41 0 C47.12354114 2.749345 51.31906898 8.51813614 55 14 C56.20062641 17.22749034 56.10322965 20.32870907 56.0625 23.75 C56.05347656 24.73484375 56.04445313 25.7196875 56.03515625 26.734375 C56.02355469 27.48203125 56.01195312 28.2296875 56 29 C41.79104478 36.35820896 41.79104478 36.35820896 35 35 C34.67 30.38 34.34 25.76 34 21 C30.37 20.67 26.74 20.34 23 20 C23 40.46 23 60.92 23 82 C12.875 85.375 12.875 85.375 9 85 C9 85.66 9 86.32 9 87 C6.03 87.495 6.03 87.495 3 88 C2.67 65.89 2.34 43.78 2 21 C-0.31 20.67 -2.62 20.34 -5 20 C-5.33 18.35 -5.66 16.7 -6 15 C-5.34 15 -4.68 15 -4 15 C-3.67 11.7 -3.34 8.4 -3 5 C-2.34 5 -1.68 5 -1 5 C-0.67 3.35 -0.34 1.7 0 0 Z " fill="#111111" transform="translate(644,529)"/>
<path d="M0 0 C4.37043763 3.17615261 7.29104856 6.87314568 9 12 C9.41456565 17.19506976 9.56881503 22.38544939 9.6796875 27.5949707 C9.7263394 29.3150976 9.79450475 31.03478333 9.88476562 32.75317383 C10.62079049 47.02738732 10.62079049 47.02738732 6.56835938 51.95947266 C-0.23229924 57 -0.23229924 57 -4 57 C-4 57.66 -4 58.32 -4 59 C-6.06183633 59.08150744 -8.12461349 59.1394194 -10.1875 59.1875 C-11.91033203 59.23970703 -11.91033203 59.23970703 -13.66796875 59.29296875 C-18.21106674 58.89351699 -20.68436457 57.44630803 -23.73046875 54.09765625 C-24.45169922 53.09025391 -24.45169922 53.09025391 -25.1875 52.0625 C-25.67605469 51.39347656 -26.16460937 50.72445312 -26.66796875 50.03515625 C-29.26016633 46.07464324 -30.2512286 43.54668686 -30.125 38.75 C-30.09792969 37.41195312 -30.09792969 37.41195312 -30.0703125 36.046875 C-30.04710937 35.37140625 -30.02390625 34.6959375 -30 34 C-31.32 34 -32.64 34 -34 34 C-33.25 26.375 -33.25 26.375 -31 23 C-30.90601908 21.41890919 -30.87008114 19.83387385 -30.875 18.25 C-30.52012611 13.96660994 -29.68112457 12.082639 -26.4375 9.25 C-24.96545941 8.15700337 -23.48627233 7.07356402 -22 6 C-21.40058594 5.41863281 -20.80117188 4.83726562 -20.18359375 4.23828125 C-14.38772954 -1.13196874 -7.57128005 -1.79389214 0 0 Z " fill="#0C0C0C" transform="translate(462,634)"/>
<path d="M0 0 C4.0384057 -0.0744389 8.07654293 -0.12873729 12.11547852 -0.16479492 C13.48794517 -0.17983432 14.86036414 -0.20027133 16.23266602 -0.22631836 C18.21088656 -0.26291221 20.18946514 -0.27816698 22.16796875 -0.29296875 C23.35672607 -0.3086792 24.5454834 -0.32438965 25.77026367 -0.34057617 C29.33877363 0.03572373 31.18432509 0.80491761 34 3 C35.25 6.125 35.25 6.125 36 9 C36.495 9.495 36.495 9.495 37 10 C37.5936444 14.7102277 37.63528961 18.02721279 35 22.0625 C34.34 22.701875 33.68 23.34125 33 24 C33.928125 24.3403125 33.928125 24.3403125 34.875 24.6875 C37.76837807 26.47458646 38.0378101 27.73542711 39 31 C39.23053113 33.94340137 39.18929204 36.86248432 39.125 39.8125 C39.11597656 40.60076172 39.10695313 41.38902344 39.09765625 42.20117188 C39.07422504 44.13424666 39.03835838 46.0671638 39 48 C40.65 48 42.3 48 44 48 C43.01 50.97 42.02 53.94 41 57 C34.26171875 56.70703125 34.26171875 56.70703125 32 56 C28.15072879 51.74554234 28.64627372 47.08772291 28.8125 41.6875 C28.83280273 40.43356445 28.83280273 40.43356445 28.85351562 39.15429688 C28.88868783 37.10258502 28.94248952 35.05120725 29 33 C23.72 33 18.44 33 13 33 C13.05800781 34.24136719 13.11601563 35.48273437 13.17578125 36.76171875 C13.22269238 38.40360814 13.26819109 40.04553832 13.3125 41.6875 C13.3753418 42.91243164 13.3753418 42.91243164 13.43945312 44.16210938 C13.52950988 48.61091302 13.50055801 50.38185576 10.60546875 53.95703125 C9.74566406 54.63121094 8.88585937 55.30539062 8 56 C7.34 56.66 6.68 57.32 6 58 C3.31160615 58.26991906 0.70858064 58.08737357 -2 58 C-2 56.68 -2 55.36 -2 54 C-1.01 54 -0.02 54 1 54 C1 52.35 1 50.7 1 49 C1.66 49 2.32 49 3 49 C3 43.72 3 38.44 3 33 C1.35 33 -0.3 33 -2 33 C-1.71758359 31.53984709 -1.42373386 30.08190207 -1.125 28.625 C-0.96257813 27.81289063 -0.80015625 27.00078125 -0.6328125 26.1640625 C0 24 0 24 2 22 C2.42355123 19.86407018 2.42355123 19.86407018 2.5625 17.5 C2.90540541 13.18918919 2.90540541 13.18918919 4 11 C2.02 11 0.04 11 -2 11 C-1.85892253 9.54119891 -1.71197585 8.08296449 -1.5625 6.625 C-1.48128906 5.81289063 -1.40007813 5.00078125 -1.31640625 4.1640625 C-1 2 -1 2 0 0 Z " fill="#101010" transform="translate(522,635)"/>
<path d="M0 0 C4.04165139 -0.02915731 8.0832755 -0.04685173 12.125 -0.0625 C13.83816406 -0.07506836 13.83816406 -0.07506836 15.5859375 -0.08789062 C16.69453125 -0.09111328 17.803125 -0.09433594 18.9453125 -0.09765625 C19.96125488 -0.10289307 20.97719727 -0.10812988 22.02392578 -0.11352539 C25.09114726 0.00347691 27.98633134 0.43223583 31 1 C31 1.66 31 2.32 31 3 C31.928125 3.4021875 31.928125 3.4021875 32.875 3.8125 C35 5 35 5 37 8 C37.3359375 11.36328125 37.3359375 11.36328125 37.375 15.3125 C37.40335937 16.60800781 37.43171875 17.90351562 37.4609375 19.23828125 C36.82721633 24.41009044 34.62411273 27.37588727 31 31 C25.19378058 33.94951821 19.37470193 33.12878186 13 33 C13 39.6 13 46.2 13 53 C11.68 53.66 10.36 54.32 9 55 C8.5875 55.53625 8.175 56.0725 7.75 56.625 C4.80758046 58.93690107 1.64351176 58.1791891 -2 58 C-2.17942163 54.05272412 -2.09350689 51.4019487 0 48 C0.66 48 1.32 48 2 48 C2 43.05 2 38.1 2 33 C0.35 33 -1.3 33 -3 33 C-2.34 29.37 -1.68 25.74 -1 22 C-0.01 22 0.98 22 2 22 C2 19.03 2 16.06 2 13 C2.99 12.67 3.98 12.34 5 12 C5 11.34 5 10.68 5 10 C2.69 10 0.38 10 -2 10 C-1.34 6.7 -0.68 3.4 0 0 Z " fill="#171717" transform="translate(387,635)"/>
<path d="M0 0 C1.26650391 0.00966797 1.26650391 0.00966797 2.55859375 0.01953125 C3.43128906 0.03628906 4.30398438 0.05304687 5.203125 0.0703125 C6.09128906 0.07933594 6.97945312 0.08835937 7.89453125 0.09765625 C10.08100558 0.12116673 12.26692594 0.15402751 14.453125 0.1953125 C12.578125 7.8203125 12.578125 7.8203125 11.453125 11.1953125 C4.193125 11.1953125 -3.066875 11.1953125 -10.546875 11.1953125 C-10.216875 15.1553125 -9.886875 19.1153125 -9.546875 23.1953125 C-9.216875 22.8653125 -8.886875 22.5353125 -8.546875 22.1953125 C-6.98514755 22.10845647 -5.41958156 22.08829031 -3.85546875 22.09765625 C-2.91123047 22.10087891 -1.96699219 22.10410156 -0.99414062 22.10742188 C-0.00091797 22.11580078 0.99230469 22.12417969 2.015625 22.1328125 C3.01271484 22.13732422 4.00980469 22.14183594 5.03710938 22.14648438 C7.50917349 22.15831243 9.98112018 22.17479401 12.453125 22.1953125 C12.14530004 23.84202662 11.83173266 25.48766826 11.515625 27.1328125 C11.34160156 28.04933594 11.16757812 28.96585938 10.98828125 29.91015625 C10.453125 32.1953125 10.453125 32.1953125 9.453125 33.1953125 C7.89139755 33.28216853 6.32583156 33.30233469 4.76171875 33.29296875 C3.81748047 33.28974609 2.87324219 33.28652344 1.90039062 33.28320312 C0.90716797 33.27482422 -0.08605469 33.26644531 -1.109375 33.2578125 C-2.10646484 33.25330078 -3.10355469 33.24878906 -4.13085938 33.24414062 C-6.60288987 33.23231273 -9.07488972 33.21437665 -11.546875 33.1953125 C-11.546875 37.1553125 -11.546875 41.1153125 -11.546875 45.1953125 C-12.206875 45.1953125 -12.866875 45.1953125 -13.546875 45.1953125 C-13.546875 46.1853125 -13.546875 47.1753125 -13.546875 48.1953125 C-4.636875 48.1953125 4.273125 48.1953125 13.453125 48.1953125 C12.453125 55.1953125 12.453125 55.1953125 11.453125 58.1953125 C-0.756875 58.1953125 -12.966875 58.1953125 -25.546875 58.1953125 C-24.546875 49.1953125 -24.546875 49.1953125 -22.546875 47.1953125 C-22.24627557 44.83021889 -22.05172488 42.45089369 -21.921875 40.0703125 C-21.84710937 38.78898438 -21.77234375 37.50765625 -21.6953125 36.1875 C-21.64632812 35.20007813 -21.59734375 34.21265625 -21.546875 33.1953125 C-23.196875 33.1953125 -24.846875 33.1953125 -26.546875 33.1953125 C-26.546875 31.8753125 -26.546875 30.5553125 -26.546875 29.1953125 C-25.886875 29.1953125 -25.226875 29.1953125 -24.546875 29.1953125 C-24.216875 26.8853125 -23.886875 24.5753125 -23.546875 22.1953125 C-22.886875 22.1953125 -22.226875 22.1953125 -21.546875 22.1953125 C-21.6396875 21.62683594 -21.7325 21.05835938 -21.828125 20.47265625 C-22.18157409 16.69201328 -22.32397835 14.20497962 -19.94140625 11.109375 C-16.47636048 8.02788965 -13.07397019 5.46855802 -8.546875 4.1953125 C-8.546875 3.5353125 -8.546875 2.8753125 -8.546875 2.1953125 C-5.55561181 0.47325062 -3.44001787 -0.04648673 0 0 Z " fill="#111111" transform="translate(595.546875,634.8046875)"/>
<path d="M0 0 C0 16.5 0 33 0 50 C-19 50 -19 50 -23 47 C-24.8724934 41.38251979 -24.34648609 35.09557421 -24.4050293 29.20458984 C-24.42658455 27.57514215 -24.46065901 25.94580949 -24.50756836 24.31689453 C-24.94314791 9.03595795 -24.94314791 9.03595795 -21.22265625 4.515625 C-14.61227601 -1.57008851 -9.79755645 0 0 0 Z " fill="#EAEAEA" transform="translate(605,548)"/>
<path d="M0 0 C12.21 0 24.42 0 37 0 C37 7 37 7 35 10 C28.565 10.495 28.565 10.495 22 11 C21.67 25.85 21.34 40.7 21 56 C15 59 15 59 11 59 C11 50.42 11 41.84 11 33 C9.68 33 8.36 33 7 33 C6.94600264 31.54207116 6.90720823 30.08357288 6.875 28.625 C6.85179687 27.81289063 6.82859375 27.00078125 6.8046875 26.1640625 C7 24 7 24 9 22 C9.38449053 20.09255184 9.38449053 20.09255184 9.5 18 C9.77777778 14.22222222 9.77777778 14.22222222 12 12 C7.05 11.67 2.1 11.34 -3 11 C-3 9.35 -3 7.7 -3 6 C-2.34 6 -1.68 6 -1 6 C-0.67 4.02 -0.34 2.04 0 0 Z " fill="#0A0A0A" transform="translate(617,635)"/>
<path d="M0 0 C1.56047445 0.00015913 3.12095416 0.00585397 4.68139648 0.01586914 C5.91115456 0.01799156 5.91115456 0.01799156 7.16575623 0.02015686 C9.79470406 0.0257725 12.42356797 0.0383276 15.05249023 0.05102539 C16.8304838 0.05603838 18.60847869 0.06060163 20.38647461 0.06469727 C24.75434569 0.07574701 29.12215371 0.09302208 33.48999023 0.11352539 C32.49999023 3.41352539 31.50999023 6.71352539 30.48999023 10.11352539 C26.19999023 10.11352539 21.90999023 10.11352539 17.48999023 10.11352539 C17.48999023 25.29352539 17.48999023 40.47352539 17.48999023 56.11352539 C13.03499023 56.60852539 13.03499023 56.60852539 8.48999023 57.11352539 C8.15999023 49.19352539 7.82999023 41.27352539 7.48999023 33.11352539 C6.16999023 32.45352539 4.84999023 31.79352539 3.48999023 31.11352539 C3.7981738 29.80000516 4.11166688 28.48772967 4.42749023 27.17602539 C4.60151367 26.44512695 4.77553711 25.71422852 4.95483398 24.96118164 C5.48999023 23.11352539 5.48999023 23.11352539 6.48999023 22.11352539 C6.73260688 19.85808915 6.87331157 17.60407016 7.01342773 15.34008789 C7.48999023 13.11352539 7.48999023 13.11352539 10.48999023 10.11352539 C4.87999023 10.11352539 -0.73000977 10.11352539 -6.51000977 10.11352539 C-4.4034386 0.14242185 -4.4034386 0.14242185 0 0 Z " fill="#0A0A0A" transform="translate(483.510009765625,634.886474609375)"/>
<path d="M0 0 C2.24940295 -0.08119503 4.49964871 -0.13927819 6.75 -0.1875 C8.00296875 -0.22230469 9.2559375 -0.25710938 10.546875 -0.29296875 C14 0 14 0 16.42871094 1.01489258 C18.85079277 4.07485954 18.49325793 7.22026386 18.390625 10.94921875 C18.38496521 11.72183548 18.37930542 12.49445221 18.37347412 13.29048157 C18.35109327 15.75678629 18.30089703 18.22163492 18.25 20.6875 C18.22993706 22.36000505 18.21168592 24.03253289 18.1953125 25.70507812 C18.15122331 29.80394596 18.08218675 33.90172617 18 38 C15.75106046 38.10823773 13.50062425 38.18569645 11.25 38.25 C9.99703125 38.29640625 8.7440625 38.3428125 7.453125 38.390625 C4 38 4 38 1.57128906 36.47363281 C-0.58681223 33.07619927 -0.50177533 30.0647392 -0.390625 26.171875 C-0.38496521 25.42286926 -0.37930542 24.67386353 -0.37347412 23.90216064 C-0.35114057 21.517448 -0.30095386 19.13425592 -0.25 16.75 C-0.22993091 15.13023009 -0.21168085 13.51043654 -0.1953125 11.890625 C-0.15128624 7.92650034 -0.08228298 3.96350768 0 0 Z " fill="#F1F1F1" transform="translate(443,645)"/>
<path d="M0 0 C3.073125 -0.061875 6.14625 -0.12375 9.3125 -0.1875 C10.27712158 -0.21481201 11.24174316 -0.24212402 12.2355957 -0.27026367 C13.38161255 -0.28150269 13.38161255 -0.28150269 14.55078125 -0.29296875 C15.72120972 -0.31653442 15.72120972 -0.31653442 16.9152832 -0.34057617 C19.55836367 0.0912188 20.38428179 0.90027269 22 3 C23.23677785 6.71033356 23.82247668 10.15918907 23 14 C20.20389337 16.47097795 17.71024041 17.72558893 14.25 19.0625 C11.67064676 19.89310465 11.67064676 19.89310465 10 23 C9.01 23.33 8.02 23.66 7 24 C6.01 25.0209375 6.01 25.0209375 5 26.0625 C3 28 3 28 0 28 C0 18.76 0 9.52 0 0 Z " fill="#E3E3E3" transform="translate(427,548)"/>
<path d="M0 0 C0.66 0 1.32 0 2 0 C2 8.58 2 17.16 2 26 C-2.33125 26.12375 -2.33125 26.12375 -6.75 26.25 C-7.65331055 26.28641602 -8.55662109 26.32283203 -9.48730469 26.36035156 C-15.37393592 26.44192759 -15.37393592 26.44192759 -18.5234375 24.21875 C-20.27817739 21.581998 -20.91995666 19.34326434 -20.7890625 16.16015625 C-19.04320798 11.38066344 -14.04470127 8.7638792 -10 6 C-9.28714844 5.45214844 -8.57429687 4.90429688 -7.83984375 4.33984375 C-5.68281327 2.76901264 -3.48648163 1.94083089 -1 1 C-0.67 0.67 -0.34 0.34 0 0 Z " fill="#F5F5F5" transform="translate(745,571)"/>
<path d="M0 0 C1.125 3.75 1.125 3.75 0 6 C3.3 6 6.6 6 10 6 C10 27.45 10 48.9 10 71 C15.61 71 21.22 71 27 71 C27 49.55 27 28.1 27 6 C33.6 6 40.2 6 47 6 C48 7 48 7 48.12025452 9.66383362 C48.11803391 10.85186081 48.11581329 12.039888 48.11352539 13.26391602 C48.11367142 13.91755127 48.11381744 14.57118652 48.1139679 15.24462891 C48.11326883 17.41442128 48.10547678 19.58412879 48.09765625 21.75390625 C48.09579205 23.25463311 48.09436816 24.75536057 48.09336853 26.25608826 C48.08954352 30.21318226 48.0797134 34.17023978 48.06866455 38.12731934 C48.05845006 42.16234849 48.05387083 46.19738353 48.04882812 50.23242188 C48.03809111 58.15496469 48.0210149 66.07747781 48 74 C48.99 74.33 49.98 74.66 51 75 C49.68 75 48.36 75 47 75 C46.67 52.89 46.34 30.78 46 8 C40.39 7.67 34.78 7.34 29 7 C29.00785522 9.94570923 29.00785522 9.94570923 29.01586914 12.95092773 C29.03196639 19.42495879 29.0434721 25.89898513 29.05181217 32.37303066 C29.05704031 36.29988658 29.06413669 40.22672094 29.07543945 44.15356445 C29.0862708 47.94014257 29.09227736 51.7266999 29.09487724 55.51329231 C29.09673105 56.96104319 29.10035081 58.40879288 29.10573006 59.85653496 C29.11294367 61.87757135 29.11340808 63.89862848 29.11352539 65.91967773 C29.115746 67.07217514 29.11796661 68.22467255 29.12025452 69.41209412 C29 72 29 72 28 73 C21.4 73 14.8 73 8 73 C8 51.22 8 29.44 8 7 C5.03 7 2.06 7 -1 7 C-0.67 4.69 -0.34 2.38 0 0 Z " fill="#787878" transform="translate(479,542)"/>
<path d="M0 0 C6.27 0 12.54 0 19 0 C17 8 17 8 16 10 C8.74 10 1.48 10 -6 10 C-5.01 9.67 -4.02 9.34 -3 9 C-3.33 8.01 -3.66 7.02 -4 6 C-3.525625 5.566875 -3.05125 5.13375 -2.5625 4.6875 C-0.76313043 2.97690387 -0.76313043 2.97690387 0 0 Z " fill="#0C0C0C" transform="translate(591,635)"/>
<path d="M0 0 C0.66 0.33 1.32 0.66 2 1 C2 30.7 2 60.4 2 91 C-6 94 -6 94 -8 94 C-8 93.34 -8 92.68 -8 92 C-6.68 92 -5.36 92 -4 92 C-4 91.34 -4 90.68 -4 90 C-2.68 90 -1.36 90 0 90 C0 60.3 0 30.6 0 0 Z " fill="#404040" transform="translate(386,521)"/>
<path d="M0 0 C4.62 0 9.24 0 14 0 C14.96070434 2.88211302 15.10581883 4.69850044 15.0625 7.6875 C15.05347656 8.49574219 15.04445313 9.30398438 15.03515625 10.13671875 C15.02355469 10.75160156 15.01195312 11.36648438 15 12 C14.21753906 12.04898438 13.43507813 12.09796875 12.62890625 12.1484375 C11.61699219 12.22320313 10.60507812 12.29796875 9.5625 12.375 C8.55316406 12.44460938 7.54382813 12.51421875 6.50390625 12.5859375 C5.26447266 12.79089844 5.26447266 12.79089844 4 13 C3.67 13.66 3.34 14.32 3 15 C2.01 15 1.02 15 0 15 C0 10.05 0 5.1 0 0 Z " fill="#E0E0E0" transform="translate(534,645)"/>
<path d="M0 0 C14.19 0 28.38 0 43 0 C43 1.32 43 2.64 43 4 C28.81 4 14.62 4 0 4 C0 2.68 0 1.36 0 0 Z " fill="#232323" transform="translate(656,695)"/>
<path d="M0 0 C10.05859375 -0.09765625 10.05859375 -0.09765625 13 0 C14 1 14 1 14.09765625 3.06640625 C14.08605469 3.89011719 14.07445312 4.71382812 14.0625 5.5625 C14.05347656 6.38878906 14.04445313 7.21507812 14.03515625 8.06640625 C14.02355469 8.70449219 14.01195312 9.34257813 14 10 C11.73957429 11.13021285 10.07089004 11.26934344 7.5625 11.5 C4.78512294 11.75623248 2.67337533 12.10887489 0 13 C0 8.71 0 4.42 0 0 Z " fill="#F2F1F2" transform="translate(400,646)"/>
<path d="M0 0 C1.91796875 2.0390625 1.91796875 2.0390625 3 4 C2.46246094 3.6803125 1.92492187 3.360625 1.37109375 3.03125 C-3.19040461 1.04733638 -8.14918293 1.20586896 -13 2 C-15.52695997 3.792318 -16.40681273 5.26882183 -18 8 C-16.77023437 8.05607422 -16.77023437 8.05607422 -15.515625 8.11328125 C-14.43796875 8.17902344 -13.3603125 8.24476563 -12.25 8.3125 C-11.18265625 8.37050781 -10.1153125 8.42851563 -9.015625 8.48828125 C-5.8178932 9.03090154 -4.37401309 9.85071145 -2 12 C-2.33 12.66 -2.66 13.32 -3 14 C-3.66 13.34 -4.32 12.68 -5 12 C-11.93 11.505 -11.93 11.505 -19 11 C-19 21.56 -19 32.12 -19 43 C-19.33 43 -19.66 43 -20 43 C-20.33 32.11 -20.66 21.22 -21 10 C-24.67913412 12.2814915 -24.67913412 12.2814915 -28 15 C-28.23192865 16.51469448 -28.41215238 18.03754562 -28.5625 19.5625 C-28.64628906 20.38878906 -28.73007812 21.21507812 -28.81640625 22.06640625 C-28.87699219 22.70449219 -28.93757813 23.34257813 -29 24 C-29.66 23.67 -30.32 23.34 -31 23 C-31.14178722 18.59573455 -31.22649392 14.57517298 -28.43359375 10.98828125 C-26.36886749 9.19023196 -24.21873177 7.60263402 -22 6 C-21.40058594 5.41863281 -20.80117188 4.83726562 -20.18359375 4.23828125 C-14.44556994 -1.0783758 -7.52985787 -1.47344106 0 0 Z " fill="#626262" transform="translate(462,634)"/>
<path d="M0 0 C4.29 0 8.58 0 13 0 C13 0.33 13 0.66 13 1 C9.04 1 5.08 1 1 1 C1 16.18 1 31.36 1 47 C-3 49 -3 49 -11 49 C-11 40.42 -11 31.84 -11 23 C-12.32 23 -13.64 23 -15 23 C-14.67 21.02 -14.34 19.04 -14 17 C-13.9175 17.61875 -13.835 18.2375 -13.75 18.875 C-13.08785794 21.53489979 -13.08785794 21.53489979 -9 23 C-9 30.92 -9 38.84 -9 47 C-4.545 46.505 -4.545 46.505 0 46 C0 30.82 0 15.64 0 0 Z " fill="#969696" transform="translate(501,645)"/>
<path d="M0 0 C-2.31 0.66 -4.62 1.32 -7 2 C-7 15.2 -7 28.4 -7 42 C-8.65 42 -10.3 42 -12 42 C-12.33 42.99 -12.66 43.98 -13 45 C-13.495 43.515 -13.495 43.515 -14 42 C-12.02 41.505 -12.02 41.505 -10 41 C-10 27.8 -10 14.6 -10 1 C-3.25 -1.25 -3.25 -1.25 0 0 Z " fill="#4F4F4F" transform="translate(324,507)"/>
<path d="M0 0 C1.32 0 2.64 0 4 0 C4 18.15 4 36.3 4 55 C6.64 54.67 9.28 54.34 12 54 C10 56 10 56 2 57 C1.67 39.18 1.34 21.36 1 3 C-0.32 3.99 -1.64 4.98 -3 6 C-2 4 -1 2 0 0 Z " fill="#5E5E5E" transform="translate(366,561)"/>
<path d="M0 0 C0.33 1.32 0.66 2.64 1 4 C6.28 4 11.56 4 17 4 C15.25 15.75 15.25 15.75 13 18 C12.59952556 20.32275177 12.2602896 22.65739357 12 25 C13.32 25.33 14.64 25.66 16 26 C16 34.25 16 42.5 16 51 C17.32 51.33 18.64 51.66 20 52 C17.03 52.495 17.03 52.495 14 53 C14 44.42 14 35.84 14 27 C12.68 27 11.36 27 10 27 C9.94600264 25.54207116 9.90720823 24.08357288 9.875 22.625 C9.85179687 21.81289063 9.82859375 21.00078125 9.8046875 20.1640625 C10 18 10 18 12 16 C12.38449053 14.09255184 12.38449053 14.09255184 12.5 12 C12.77777778 8.22222222 12.77777778 8.22222222 15 6 C10.05 5.67 5.1 5.34 0 5 C0 3.35 0 1.7 0 0 Z " fill="#727272" transform="translate(614,641)"/>
<path d="M0 0 C1.60080151 4.00200378 0.29279692 7.04556236 -1 11 C1.97 11 4.94 11 8 11 C8 21.23 8 31.46 8 42 C6.68 42 5.36 42 4 42 C3.87625 42.61875 3.7525 43.2375 3.625 43.875 C3 46 3 46 1 48 C1.495 45.03 1.495 45.03 2 42 C3.98 41.505 3.98 41.505 6 41 C6 31.76 6 22.52 6 13 C3.03 13 0.06 13 -3 13 C-2.45144652 8.428721 -1.58255197 4.32564205 0 0 Z " fill="#767676" transform="translate(308,556)"/>
<path d="M0 0 C0.99 0.66 1.98 1.32 3 2 C3 2.66 3 3.32 3 4 C3.66 4 4.32 4 5 4 C6.12659519 7.37978558 6.12020983 9.92816136 6.11352539 13.4909668 C6.11367142 14.1448941 6.11381744 14.79882141 6.1139679 15.4725647 C6.11327188 17.63148326 6.10549408 19.79031528 6.09765625 21.94921875 C6.09579096 23.44708713 6.09436758 24.94495611 6.09336853 26.44282532 C6.08955207 30.38345019 6.0797292 34.32403814 6.06866455 38.26464844 C6.05843172 42.28645325 6.0538669 46.30826404 6.04882812 50.33007812 C6.03810616 58.22006901 6.02104017 66.11002991 6 74 C2.04 74.99 2.04 74.99 -2 76 C-2 75.34 -2 74.68 -2 74 C1.465 73.505 1.465 73.505 5 73 C5 52.21 5 31.42 5 10 C4.34 10 3.68 10 3 10 C2.67 8.02 2.34 6.04 2 4 C1.34 4 0.68 4 0 4 C0 2.68 0 1.36 0 0 Z " fill="#525252" transform="translate(540,537)"/>
<path d="M0 0 C0.02465881 3.96930989 0.04284023 7.93859034 0.05493164 11.90795898 C0.05997057 13.25920386 0.06680177 14.61044326 0.07543945 15.96166992 C0.08752419 17.90020434 0.09269828 19.838778 0.09765625 21.77734375 C0.10551147 23.52905884 0.10551147 23.52905884 0.11352539 25.31616211 C0 28 0 28 -1 29 C-4.2834318 29.27818549 -7.58117732 29.23177691 -10.875 29.25 C-11.79925781 29.270625 -12.72351563 29.29125 -13.67578125 29.3125 C-14.56394531 29.31765625 -15.45210937 29.3228125 -16.3671875 29.328125 C-17.18300293 29.3374707 -17.99881836 29.34681641 -18.83935547 29.35644531 C-21.47094179 28.92230791 -22.3391242 28.03003376 -24 26 C-23.67 25.34 -23.34 24.68 -23 24 C-22.59225342 24.4844458 -22.18450684 24.9688916 -21.7644043 25.46801758 C-19.61866351 27.33110371 -18.57340154 27.41229073 -15.76953125 27.51171875 C-15.04612549 27.54483154 -14.32271973 27.57794434 -13.57739258 27.61206055 C-12.20877075 27.64940308 -12.20877075 27.64940308 -10.8125 27.6875 C-7.904375 27.790625 -4.99625 27.89375 -2 28 C-2 19.42 -2 10.84 -2 2 C-3.32 2.99 -4.64 3.98 -6 5 C-6.66 4.67 -7.32 4.34 -8 4 C-4.5 0 -4.5 0 0 0 Z " fill="#767676" transform="translate(749,569)"/>
<path d="M0 0 C-0.309375 0.5775 -0.61875 1.155 -0.9375 1.75 C-2.19285032 4.21905868 -2.19285032 4.21905868 -3 8 C3.27 8.33 9.54 8.66 16 9 C16 9.33 16 9.66 16 10 C8.74 10 1.48 10 -6 10 C-6 14.29 -6 18.58 -6 23 C-6.33 23 -6.66 23 -7 23 C-7.33 18.05 -7.66 13.1 -8 8 C-9.98 8.99 -9.98 8.99 -12 10 C-12.99 10 -13.98 10 -15 10 C-11.43569245 6.85014682 -8.59306496 4.4859916 -4 3 C-4 2.34 -4 1.68 -4 1 C-2 0 -2 0 0 0 Z " fill="#626262" transform="translate(591,636)"/>
<path d="M0 0 C0.66 0.33 1.32 0.66 2 1 C1.25234375 1.67546875 0.5046875 2.3509375 -0.265625 3.046875 C-1.26046556 3.94786268 -2.25525449 4.84890738 -3.25 5.75 C-4.22453125 6.63171875 -5.1990625 7.5134375 -6.203125 8.421875 C-7.12609375 9.27265625 -8.0490625 10.1234375 -9 11 C-9.763125 11.66 -10.52625 12.32 -11.3125 13 C-13.41251107 15.48890201 -13.58058694 17.03115181 -13.75 20.25 C-13.83507812 21.58804688 -13.83507812 21.58804688 -13.921875 22.953125 C-13.94765625 23.62859375 -13.9734375 24.3040625 -14 25 C-12.35 25 -10.7 25 -9 25 C-11 27 -11 27 -13.625 27.125 C-14.40875 27.08375 -15.1925 27.0425 -16 27 C-16.86067418 14.10901337 -16.86067418 14.10901337 -13.8125 10.375 C-11.27254494 8.23014906 -8.8886259 6.62044868 -6 5 C-3.94366506 3.39196557 -1.97965875 1.7034273 0 0 Z " fill="#2F2F2F" transform="translate(725,540)"/>
<path d="M0 0 C4.0384057 -0.0744389 8.07654293 -0.12873729 12.11547852 -0.16479492 C13.48794517 -0.17983432 14.86036414 -0.20027133 16.23266602 -0.22631836 C18.21088656 -0.26291221 20.18946514 -0.27816698 22.16796875 -0.29296875 C23.35672607 -0.3086792 24.5454834 -0.32438965 25.77026367 -0.34057617 C29.28064831 0.02959441 31.15535052 0.96676743 34 3 C33.67 3.66 33.34 4.32 33 5 C31.0625 4.625 31.0625 4.625 29 4 C28.67 3.34 28.34 2.68 28 2 C19.09 1.67 10.18 1.34 1 1 C0.67 3.64 0.34 6.28 0 9 C1.65 9.33 3.3 9.66 5 10 C4.67 10.66 4.34 11.32 4 12 C1.03 11.505 1.03 11.505 -2 11 C-1.85892253 9.54119891 -1.71197585 8.08296449 -1.5625 6.625 C-1.48128906 5.81289063 -1.40007813 5.00078125 -1.31640625 4.1640625 C-1 2 -1 2 0 0 Z " fill="#515151" transform="translate(522,635)"/>
<path d="M0 0 C0.66 0.33 1.32 0.66 2 1 C0.71937515 2.7074998 -0.61767557 4.37373596 -2 6 C-2.66 6 -3.32 6 -4 6 C-3.67 19.53 -3.34 33.06 -3 47 C-5.61904659 43.07143011 -5.34219474 39.66160968 -5.37109375 35.09765625 C-5.38012222 34.22354599 -5.3891507 33.34943573 -5.39845276 32.44883728 C-5.41295717 30.60044786 -5.42184247 28.75200708 -5.42553711 26.90356445 C-5.43744271 24.07610691 -5.48663167 21.25082557 -5.53710938 18.42382812 C-5.54657267 16.62761482 -5.55380815 14.83138811 -5.55859375 13.03515625 C-5.57812607 12.19026138 -5.59765839 11.34536652 -5.61778259 10.47486877 C-5.57247374 4.5792003 -5.57247374 4.5792003 -2.46508789 1.43530273 C-1.65160889 0.96165283 -0.83812988 0.48800293 0 0 Z " fill="#4C4C4C" transform="translate(413,549)"/>
<path d="M0 0 C0.33 0 0.66 0 1 0 C1 5.28 1 10.56 1 16 C0.34 16 -0.32 16 -1 16 C-1 17.65 -1 19.3 -1 21 C-1.99 21 -2.98 21 -4 21 C-4 22.32 -4 23.64 -4 25 C1.71241466 24.61271765 4.73688282 24.12989477 9 20 C7.84826645 22.46800047 6.95216435 24.04783565 5 26 C2.6171875 26.1953125 2.6171875 26.1953125 -0.125 26.125 C-1.73375 26.08375 -3.3425 26.0425 -5 26 C-4.67 22.7 -4.34 19.4 -4 16 C-2.68 15.67 -1.36 15.34 0 15 C0 10.05 0 5.1 0 0 Z " fill="#939393" transform="translate(524,668)"/>
<path d="M0 0 C0.33 0.66 0.66 1.32 1 2 C-1.45454545 7.72727273 -1.45454545 7.72727273 -4 9 C-4.33 9.99 -4.66 10.98 -5 12 C-12.59 12 -20.18 12 -28 12 C-28.33 11.34 -28.66 10.68 -29 10 C-21.41 10.33 -13.82 10.66 -6 11 C-5.67 9.68 -5.34 8.36 -5 7 C-3.80859375 5.078125 -3.80859375 5.078125 -2.4375 3.25 C-1.98246094 2.63640625 -1.52742188 2.0228125 -1.05859375 1.390625 C-0.70925781 0.93171875 -0.35992187 0.4728125 0 0 Z " fill="#515151" transform="translate(460,605)"/>
<path d="M0 0 C1.77503906 0.03480469 1.77503906 0.03480469 3.5859375 0.0703125 C5.36871094 0.09738281 5.36871094 0.09738281 7.1875 0.125 C8.10273438 0.14820313 9.01796875 0.17140625 9.9609375 0.1953125 C9.40948479 5.43411328 8.53171657 10.16881947 6.9609375 15.1953125 C5.41377915 10.47810241 6.78075195 6.91605469 7.9609375 2.1953125 C3.6709375 2.1953125 -0.6190625 2.1953125 -5.0390625 2.1953125 C-3.0390625 0.1953125 -3.0390625 0.1953125 0 0 Z " fill="#5D5D5D" transform="translate(387.0390625,502.8046875)"/>
<path d="M0 0 C7.42857143 -0.28571429 7.42857143 -0.28571429 11 2 C8.69 2.33 6.38 2.66 4 3 C4 2.34 4 1.68 4 1 C3.01 1 2.02 1 1 1 C0.896875 2.051875 0.79375 3.10375 0.6875 4.1875 C0.02266585 7.87430754 -0.88566296 9.96638599 -3 13 C-4 11 -4 11 -3.1875 8.1875 C-2.16400226 5.44021658 -1.11622346 2.71082841 0 0 Z " fill="#444444" transform="translate(484,529)"/>
<path d="M0 0 C2 1 2 1 3.125 3.5625 C4.19590573 7.76962963 4.49711243 10.66802022 4 15 C1.625 17.0625 1.625 17.0625 -1 18 C-1.66 17.67 -2.32 17.34 -3 17 C-2.01 16.5359375 -2.01 16.5359375 -1 16.0625 C1.37992832 13.60819892 1.29599065 12.93237254 1.3125 9.625 C1.16768525 6.33716884 0.82477807 3.19601502 0 0 Z " fill="#B4B4B4" transform="translate(467,546)"/>
<path d="M0 0 C0.66 0.33 1.32 0.66 2 1 C1.175 1.94875 0.35 2.8975 -0.5 3.875 C-3.79079255 8.38941118 -3.48761453 12.61456845 -3 18 C-5.94860192 13.57709713 -5.80001312 9.18843457 -5 4 C-2.5 1.3125 -2.5 1.3125 0 0 Z " fill="#6D6D6D" transform="translate(710,581)"/>
<path d="M0 0 C2.28125 1.5234375 2.28125 1.5234375 4 3 C-1.66666667 3 -7.33333333 3 -13 3 C-9.38828999 -0.76874088 -4.91748104 -0.88306878 0 0 Z " fill="#4D4D4D" transform="translate(448,529)"/>
<path d="M0 0 C0.66 0.33 1.32 0.66 2 1 C0.26346561 2.70360012 -1.48685393 4.38683827 -3.25 6.0625 C-3.74113281 6.54783203 -4.23226562 7.03316406 -4.73828125 7.53320312 C-6.203125 8.91015625 -6.203125 8.91015625 -9 11 C-11.359375 10.80859375 -11.359375 10.80859375 -13 10 C-12.22076172 9.41992188 -12.22076172 9.41992188 -11.42578125 8.828125 C-7.5657369 5.94557801 -3.73973042 3.03853097 0 0 Z " fill="#626262" transform="translate(725,540)"/>
<path d="M0 0 C0.66 0 1.32 0 2 0 C2 0.66 2 1.32 2 2 C2.66 2 3.32 2 4 2 C4.33 5.3 4.66 8.6 5 12 C4.01 12.495 4.01 12.495 3 13 C2.8046875 10.98177083 2.609375 8.96354167 2.4140625 6.9453125 C2.13625251 4.77331755 2.13625251 4.77331755 0 3 C0 2.01 0 1.02 0 0 Z " fill="#9E9E9E" transform="translate(556,640)"/>
<path d="M0 0 C0.66 0.33 1.32 0.66 2 1 C1.01 2.485 1.01 2.485 0 4 C-0.99 4 -1.98 4 -3 4 C-3.66 5.32 -4.32 6.64 -5 8 C-6.32 7.67 -7.64 7.34 -9 7 C-6.03 4.69 -3.06 2.38 0 0 Z " fill="#5D5D5D" transform="translate(732,565)"/>
<path d="M0 0 C0.66 0.33 1.32 0.66 2 1 C-0.625 4.875 -0.625 4.875 -4 6 C-4.33 6.99 -4.66 7.98 -5 9 C-5.99 9 -6.98 9 -8 9 C-6.4169423 4.7257442 -3.49431596 2.73468206 0 0 Z " fill="#414141" transform="translate(379,505)"/>
<path d="M0 0 C0.66 0.66 1.32 1.32 2 2 C1 3.5 1 3.5 -1 5 C-3.71846235 5.27345479 -6.25677199 5.13491285 -9 5 C-8.67 3.68 -8.34 2.36 -8 1 C-8 1.99 -8 2.98 -8 4 C-7.01 4 -6.02 4 -5 4 C-5 3.34 -5 2.68 -5 2 C-3.35 2 -1.7 2 0 2 C0 1.34 0 0.68 0 0 Z " fill="#343434" transform="translate(529,688)"/>
<path d="M0 0 C0.66 0.33 1.32 0.66 2 1 C-0.12303556 4.18455334 -1.73495052 5.15817721 -5 7 C-5.33 7.33 -5.66 7.66 -6 8 C-7.99958364 8.04080783 -10.00045254 8.04254356 -12 8 C-12 7.67 -12 7.34 -12 7 C-10.700625 6.6596875 -10.700625 6.6596875 -9.375 6.3125 C-5.38221186 4.75974905 -3.15751695 2.85680105 0 0 Z " fill="#939393" transform="translate(740,609)"/>
<path d="M0 0 C0.66 0.33 1.32 0.66 2 1 C0 4 0 4 -3 5 C-3.99 6.485 -3.99 6.485 -5 8 C-6.32 7.67 -7.64 7.34 -9 7 C-6.03 4.69 -3.06 2.38 0 0 Z " fill="#6B6B6B" transform="translate(433,533)"/>
<path d="M0 0 C0.66 0.33 1.32 0.66 2 1 C0.875 3.4375 0.875 3.4375 -1 6 C-4.1875 6.8125 -4.1875 6.8125 -7 7 C-7 6.34 -7 5.68 -7 5 C-5.46875 3.7109375 -5.46875 3.7109375 -3.5 2.375 C-2.8503125 1.92898438 -2.200625 1.48296875 -1.53125 1.0234375 C-1.0259375 0.68570313 -0.520625 0.34796875 0 0 Z " fill="#B8B8B8" transform="translate(465,686)"/>
<path d="M0 0 C0.33 0.66 0.66 1.32 1 2 C1.66 2.33 2.32 2.66 3 3 C2.360625 3.350625 1.72125 3.70125 1.0625 4.0625 C-1.82163832 6.77184206 -1.7100822 9.15858911 -2 13 C-2.66 12.67 -3.32 12.34 -4 12 C-3.91253716 10.56138706 -3.80434652 9.12402492 -3.6875 7.6875 C-3.62949219 6.88699219 -3.57148438 6.08648438 -3.51171875 5.26171875 C-2.91793306 2.63727666 -2.04219706 1.69179328 0 0 Z " fill="#333333" transform="translate(494,645)"/>
<path d="M0 0 C0.33 0.66 0.66 1.32 1 2 C-1.45454545 7.72727273 -1.45454545 7.72727273 -4 9 C-4.33 9.99 -4.66 10.98 -5 12 C-5.66 11.67 -6.32 11.34 -7 11 C-6.21258141 9.53936857 -5.4199095 8.08156827 -4.625 6.625 C-4.18414062 5.81289063 -3.74328125 5.00078125 -3.2890625 4.1640625 C-2 2 -2 2 0 0 Z " fill="#8B8B8B" transform="translate(460,605)"/>
<path d="M0 0 C5.28 0.66 10.56 1.32 16 2 C16 2.33 16 2.66 16 3 C13.89646505 3.0810206 11.79204048 3.13919907 9.6875 3.1875 C8.51574219 3.22230469 7.34398437 3.25710938 6.13671875 3.29296875 C3 3 3 3 0 0 Z " fill="#505050" transform="translate(442,690)"/>
<path d="M0 0 C0.66 1.65 1.32 3.3 2 5 C1.0925 4.814375 0.185 4.62875 -0.75 4.4375 C-3.68314324 4.04265379 -5.2644657 4.05308428 -8 5 C-8 4.34 -8 3.68 -8 3 C-5.09451118 0.95830515 -3.59857954 0 0 0 Z " fill="#959595" transform="translate(750,604)"/>
<path d="M0 0 C0.66 0.33 1.32 0.66 2 1 C-0.59692816 4.89539223 -2.83425768 5.91712884 -7 8 C-7.66 7.67 -8.32 7.34 -9 7 C-6.03 4.69 -3.06 2.38 0 0 Z " fill="#757575" transform="translate(721,573)"/>
<path d="M0 0 C-1.15173355 2.46800047 -2.04783565 4.04783565 -4 6 C-6.125 5.625 -6.125 5.625 -8 5 C-6.68 4.34 -5.36 3.68 -4 3 C-4 2.34 -4 1.68 -4 1 C-2 0 -2 0 0 0 Z " fill="#5E5E5E" transform="translate(522,530)"/>
<path d="M0 0 C-2.97 2.475 -2.97 2.475 -6 5 C-6.66 4.67 -7.32 4.34 -8 4 C-7.25 2.0625 -7.25 2.0625 -6 0 C-3.40292416 -1.05506206 -2.5386068 -1.2693034 0 0 Z " fill="#676767" transform="translate(604,606)"/>
<path d="M0 0 C3.67230705 3.07999946 4.56802365 5.2482602 5 10 C4.34 10 3.68 10 3 10 C2.67 8.02 2.34 6.04 2 4 C1.34 4 0.68 4 0 4 C0 2.68 0 1.36 0 0 Z " fill="#313131" transform="translate(540,537)"/>
<path d="M0 0 C0 0.99 0 1.98 0 3 C-3.33333333 6 -3.33333333 6 -6 6 C-6.66 4.68 -7.32 3.36 -8 2 C-7.05125 2.04125 -6.1025 2.0825 -5.125 2.125 C-1.89755144 2.34973818 -1.89755144 2.34973818 0 0 Z " fill="#9F9F9F" transform="translate(670,534)"/>
<path d="M0 0 C0.66 0.33 1.32 0.66 2 1 C-0.12055614 4.1808342 -1.63050557 5.31525278 -5 7 C-5.66 6.67 -6.32 6.34 -7 6 C-4.69 4.02 -2.38 2.04 0 0 Z " fill="#A0A0A0" transform="translate(735,577)"/>
<path d="M0 0 C0.66 0.33 1.32 0.66 2 1 C0.68 2.65 -0.64 4.3 -2 6 C-3.32 5.67 -4.64 5.34 -6 5 C-4.02 3.35 -2.04 1.7 0 0 Z " fill="#5F5F5F" transform="translate(738,530)"/>
<path d="M0 0 C0.66 0.33 1.32 0.66 2 1 C0.71937515 2.7074998 -0.61767557 4.37373596 -2 6 C-2.66 6 -3.32 6 -4 6 C-3.6875 4.125 -3.6875 4.125 -3 2 C-2.01 1.34 -1.02 0.68 0 0 Z " fill="#2E2E2E" transform="translate(413,549)"/>
</svg>
